<svg width="443" height="620" viewBox="0 0 443 620" fill="none" xmlns="http://www.w3.org/2000/svg">
<rect opacity="0.9" x="308.5" y="369.707" width="176.484" height="176.484" transform="rotate(45 308.5 369.707)" stroke="white"/>
<rect opacity="0.9" x="308.5" y="340" width="177.484" height="177.484" transform="rotate(45 308.5 340)" fill="#06255B" fill-opacity="0.8" stroke="#DA5D24" stroke-width="10"/>
<path d="M244.491 474V471.504L250.875 461.856H245.115V458.4H255.963V460.896L249.579 470.544H256.011V474H244.491ZM261.536 474.288C260.224 474.288 259.272 473.848 258.68 472.968C258.088 472.072 257.792 470.88 257.792 469.392V462H261.92V468.864C261.92 469.632 262.016 470.144 262.208 470.4C262.416 470.656 262.72 470.784 263.12 470.784C263.504 470.784 263.824 470.704 264.08 470.544C264.336 470.384 264.592 470.112 264.848 469.728V462H268.976V474H265.616L265.328 472.416H265.232C264.752 472.992 264.216 473.448 263.624 473.784C263.048 474.12 262.352 474.288 261.536 474.288ZM274.595 474L270.659 462H274.787L276.083 467.232C276.371 468.432 276.659 469.68 276.947 470.976H277.043C277.331 469.68 277.619 468.432 277.907 467.232L279.203 462H283.139L279.347 474H274.595ZM290.151 474.288C288.983 474.288 287.927 474.04 286.983 473.544C286.055 473.048 285.319 472.336 284.775 471.408C284.231 470.464 283.959 469.328 283.959 468C283.959 466.704 284.231 465.592 284.775 464.664C285.335 463.72 286.055 462.992 286.935 462.48C287.815 461.968 288.743 461.712 289.719 461.712C290.903 461.712 291.879 461.976 292.647 462.504C293.431 463.016 294.007 463.712 294.375 464.592C294.759 465.472 294.951 466.448 294.951 467.52C294.951 467.872 294.927 468.216 294.879 468.552C294.847 468.872 294.815 469.104 294.783 469.248H287.943C288.135 469.968 288.479 470.472 288.975 470.76C289.471 471.032 290.055 471.168 290.727 471.168C291.495 471.168 292.311 470.928 293.175 470.448L294.519 472.896C293.879 473.344 293.159 473.688 292.359 473.928C291.559 474.168 290.823 474.288 290.151 474.288ZM287.895 466.56H291.447C291.447 466.096 291.327 465.696 291.087 465.36C290.863 465.008 290.439 464.832 289.815 464.832C289.367 464.832 288.967 464.968 288.615 465.24C288.263 465.512 288.023 465.952 287.895 466.56ZM297.216 474V462H300.576L300.864 464.064H300.96C301.408 463.248 301.936 462.656 302.544 462.288C303.168 461.904 303.776 461.712 304.368 461.712C304.736 461.712 305.032 461.736 305.256 461.784C305.496 461.816 305.696 461.872 305.856 461.952L305.184 465.504C304.976 465.456 304.768 465.416 304.56 465.384C304.352 465.336 304.112 465.312 303.84 465.312C303.408 465.312 302.952 465.464 302.472 465.768C302.008 466.056 301.632 466.576 301.344 467.328V474H297.216ZM310.943 474.288C310.015 474.288 309.279 474.104 308.735 473.736C308.207 473.352 307.823 472.824 307.583 472.152C307.359 471.464 307.247 470.672 307.247 469.776V457.296H311.375V469.92C311.375 470.32 311.447 470.6 311.591 470.76C311.751 470.904 311.903 470.976 312.047 470.976C312.127 470.976 312.191 470.976 312.239 470.976C312.303 470.96 312.383 470.944 312.479 470.928L312.959 473.952C312.751 474.048 312.479 474.128 312.143 474.192C311.807 474.256 311.407 474.288 310.943 474.288ZM317.516 474.288C316.764 474.288 316.116 474.12 315.572 473.784C315.044 473.432 314.636 472.976 314.348 472.416C314.06 471.856 313.916 471.248 313.916 470.592C313.916 469.344 314.428 468.368 315.452 467.664C316.476 466.944 318.14 466.464 320.444 466.224C320.348 465.392 319.788 464.976 318.764 464.976C318.332 464.976 317.876 465.064 317.396 465.24C316.916 465.4 316.364 465.648 315.74 465.984L314.3 463.296C315.148 462.784 316.004 462.392 316.868 462.12C317.748 461.848 318.652 461.712 319.58 461.712C321.148 461.712 322.372 462.16 323.252 463.056C324.132 463.936 324.572 465.36 324.572 467.328V474H321.212L320.924 472.848H320.828C320.348 473.28 319.836 473.632 319.292 473.904C318.764 474.16 318.172 474.288 317.516 474.288ZM318.956 471.12C319.292 471.12 319.572 471.048 319.796 470.904C320.02 470.744 320.236 470.544 320.444 470.304V468.672C319.468 468.816 318.788 469.032 318.404 469.32C318.036 469.608 317.852 469.92 317.852 470.256C317.852 470.832 318.22 471.12 318.956 471.12ZM316.988 460.512C316.428 460.512 315.964 460.328 315.596 459.96C315.244 459.592 315.068 459.136 315.068 458.592C315.068 458.048 315.244 457.592 315.596 457.224C315.964 456.856 316.428 456.672 316.988 456.672C317.548 456.672 318.004 456.856 318.356 457.224C318.724 457.592 318.908 458.048 318.908 458.592C318.908 459.136 318.724 459.592 318.356 459.96C318.004 460.328 317.548 460.512 316.988 460.512ZM322.46 460.512C321.9 460.512 321.436 460.328 321.068 459.96C320.716 459.592 320.54 459.136 320.54 458.592C320.54 458.048 320.716 457.592 321.068 457.224C321.436 456.856 321.9 456.672 322.46 456.672C323.02 456.672 323.476 456.856 323.828 457.224C324.196 457.592 324.38 458.048 324.38 458.592C324.38 459.136 324.196 459.592 323.828 459.96C323.476 460.328 323.02 460.512 322.46 460.512ZM330.959 474.288C330.191 474.288 329.375 474.136 328.511 473.832C327.663 473.512 326.927 473.104 326.303 472.608L328.127 470.064C329.215 470.864 330.191 471.264 331.055 471.264C331.487 471.264 331.791 471.208 331.967 471.096C332.159 470.968 332.255 470.784 332.255 470.544C332.255 470.224 332.023 469.976 331.559 469.8C331.095 469.608 330.559 469.392 329.951 469.152C329.487 468.96 329.023 468.72 328.559 468.432C328.111 468.128 327.735 467.744 327.431 467.28C327.127 466.816 326.975 466.256 326.975 465.6C326.975 464.416 327.415 463.472 328.295 462.768C329.175 462.064 330.319 461.712 331.727 461.712C332.719 461.712 333.567 461.88 334.271 462.216C334.991 462.536 335.615 462.896 336.143 463.296L334.319 465.744C333.887 465.424 333.463 465.176 333.047 465C332.631 464.824 332.239 464.736 331.871 464.736C331.167 464.736 330.815 464.96 330.815 465.408C330.815 465.712 331.031 465.952 331.463 466.128C331.911 466.288 332.431 466.48 333.023 466.704C333.503 466.88 333.975 467.112 334.439 467.4C334.919 467.688 335.311 468.064 335.615 468.528C335.935 468.992 336.095 469.584 336.095 470.304C336.095 471.424 335.655 472.368 334.775 473.136C333.911 473.904 332.639 474.288 330.959 474.288ZM341.811 474.288C341.043 474.288 340.227 474.136 339.363 473.832C338.515 473.512 337.779 473.104 337.155 472.608L338.979 470.064C340.067 470.864 341.043 471.264 341.907 471.264C342.339 471.264 342.643 471.208 342.819 471.096C343.011 470.968 343.107 470.784 343.107 470.544C343.107 470.224 342.875 469.976 342.411 469.8C341.947 469.608 341.411 469.392 340.803 469.152C340.339 468.96 339.875 468.72 339.411 468.432C338.963 468.128 338.587 467.744 338.283 467.28C337.979 466.816 337.827 466.256 337.827 465.6C337.827 464.416 338.267 463.472 339.147 462.768C340.027 462.064 341.171 461.712 342.579 461.712C343.571 461.712 344.419 461.88 345.123 462.216C345.843 462.536 346.467 462.896 346.995 463.296L345.171 465.744C344.739 465.424 344.315 465.176 343.899 465C343.483 464.824 343.091 464.736 342.723 464.736C342.019 464.736 341.667 464.96 341.667 465.408C341.667 465.712 341.883 465.952 342.315 466.128C342.763 466.288 343.283 466.48 343.875 466.704C344.355 466.88 344.827 467.112 345.291 467.4C345.771 467.688 346.163 468.064 346.467 468.528C346.787 468.992 346.947 469.584 346.947 470.304C346.947 471.424 346.507 472.368 345.627 473.136C344.763 473.904 343.491 474.288 341.811 474.288ZM348.966 474V462H353.094V474H348.966ZM351.03 460.512C350.358 460.512 349.814 460.328 349.398 459.96C348.982 459.576 348.774 459.072 348.774 458.448C348.774 457.824 348.982 457.328 349.398 456.96C349.814 456.576 350.358 456.384 351.03 456.384C351.702 456.384 352.246 456.576 352.662 456.96C353.078 457.328 353.286 457.824 353.286 458.448C353.286 459.072 353.078 459.576 352.662 459.96C352.246 460.328 351.702 460.512 351.03 460.512ZM360.248 478.944C359.336 478.944 358.496 478.84 357.728 478.632C356.96 478.44 356.344 478.128 355.88 477.696C355.432 477.264 355.208 476.688 355.208 475.968C355.208 475.024 355.768 474.256 356.888 473.664V473.568C356.584 473.344 356.32 473.072 356.096 472.752C355.888 472.416 355.784 472 355.784 471.504C355.784 471.088 355.904 470.68 356.144 470.28C356.4 469.88 356.728 469.536 357.128 469.248V469.152C356.696 468.864 356.312 468.456 355.976 467.928C355.656 467.384 355.496 466.768 355.496 466.08C355.496 465.088 355.736 464.272 356.216 463.632C356.712 462.976 357.352 462.496 358.136 462.192C358.92 461.872 359.752 461.712 360.632 461.712C361.336 461.712 361.976 461.808 362.552 462H367.016V464.976H365.288C365.336 465.12 365.376 465.304 365.408 465.528C365.456 465.752 365.48 465.984 365.48 466.224C365.48 467.168 365.264 467.936 364.832 468.528C364.4 469.104 363.816 469.528 363.08 469.8C362.344 470.072 361.528 470.208 360.632 470.208C360.232 470.208 359.784 470.152 359.288 470.04C359.096 470.216 359 470.448 359 470.736C359 470.992 359.128 471.176 359.384 471.288C359.656 471.4 360.088 471.456 360.68 471.456H362.48C363.984 471.456 365.144 471.704 365.96 472.2C366.792 472.68 367.208 473.472 367.208 474.576C367.208 475.44 366.92 476.2 366.344 476.856C365.784 477.512 364.984 478.024 363.944 478.392C362.904 478.76 361.672 478.944 360.248 478.944ZM360.632 467.76C361.016 467.76 361.328 467.624 361.568 467.352C361.808 467.08 361.928 466.656 361.928 466.08C361.928 465.52 361.808 465.112 361.568 464.856C361.328 464.584 361.016 464.448 360.632 464.448C360.248 464.448 359.936 464.584 359.696 464.856C359.456 465.112 359.336 465.52 359.336 466.08C359.336 466.656 359.456 467.08 359.696 467.352C359.936 467.624 360.248 467.76 360.632 467.76ZM360.92 476.4C361.592 476.4 362.152 476.296 362.6 476.088C363.048 475.896 363.272 475.632 363.272 475.296C363.272 474.976 363.128 474.776 362.84 474.696C362.568 474.616 362.176 474.576 361.664 474.576H360.728C360.248 474.576 359.88 474.56 359.624 474.528C359.384 474.512 359.176 474.48 359 474.432C358.712 474.72 358.568 475.008 358.568 475.296C358.568 475.68 358.784 475.96 359.216 476.136C359.664 476.312 360.232 476.4 360.92 476.4ZM371.43 474.288C370.742 474.288 370.166 474.048 369.702 473.568C369.254 473.072 369.03 472.48 369.03 471.792C369.03 471.088 369.254 470.496 369.702 470.016C370.166 469.536 370.742 469.296 371.43 469.296C372.134 469.296 372.71 469.536 373.158 470.016C373.606 470.496 373.83 471.088 373.83 471.792C373.83 472.48 373.606 473.072 373.158 473.568C372.71 474.048 372.134 474.288 371.43 474.288Z" fill="white"/>
<rect opacity="0.9" x="88.132" y="222.707" width="123.636" height="123.636" transform="rotate(45 88.132 222.707)" stroke="#FF7C40"/>
<rect opacity="0.9" x="115.131" y="222" width="124.636" height="124.636" transform="rotate(45 115.131 222)" fill="#06255B" fill-opacity="0.8" stroke="#06255B" stroke-width="9"/>
<path d="M97.8825 311.048L97.6405 312.038H100.281L100.039 311.048C99.8625 310.359 99.6865 309.611 99.5105 308.804C99.3345 307.997 99.1585 307.235 98.9825 306.516H98.8945C98.7479 307.235 98.5865 307.997 98.4105 308.804C98.2345 309.611 98.0585 310.359 97.8825 311.048ZM92.3825 318L96.7385 303.7H101.315L105.671 318H101.667L100.963 314.964H96.9585L96.2545 318H92.3825ZM110.73 322.532C109.894 322.532 109.124 322.437 108.42 322.246C107.716 322.07 107.152 321.784 106.726 321.388C106.316 320.992 106.11 320.464 106.11 319.804C106.11 318.939 106.624 318.235 107.65 317.692V317.604C107.372 317.399 107.13 317.149 106.924 316.856C106.734 316.548 106.638 316.167 106.638 315.712C106.638 315.331 106.748 314.957 106.968 314.59C107.203 314.223 107.504 313.908 107.87 313.644V313.556C107.474 313.292 107.122 312.918 106.814 312.434C106.521 311.935 106.374 311.371 106.374 310.74C106.374 309.831 106.594 309.083 107.034 308.496C107.489 307.895 108.076 307.455 108.794 307.176C109.513 306.883 110.276 306.736 111.082 306.736C111.728 306.736 112.314 306.824 112.842 307H116.934V309.728H115.35C115.394 309.86 115.431 310.029 115.46 310.234C115.504 310.439 115.526 310.652 115.526 310.872C115.526 311.737 115.328 312.441 114.932 312.984C114.536 313.512 114.001 313.901 113.326 314.15C112.652 314.399 111.904 314.524 111.082 314.524C110.716 314.524 110.305 314.473 109.85 314.37C109.674 314.531 109.586 314.744 109.586 315.008C109.586 315.243 109.704 315.411 109.938 315.514C110.188 315.617 110.584 315.668 111.126 315.668H112.776C114.155 315.668 115.218 315.895 115.966 316.35C116.729 316.79 117.11 317.516 117.11 318.528C117.11 319.32 116.846 320.017 116.318 320.618C115.805 321.219 115.072 321.689 114.118 322.026C113.165 322.363 112.036 322.532 110.73 322.532ZM111.082 312.28C111.434 312.28 111.72 312.155 111.94 311.906C112.16 311.657 112.27 311.268 112.27 310.74C112.27 310.227 112.16 309.853 111.94 309.618C111.72 309.369 111.434 309.244 111.082 309.244C110.73 309.244 110.444 309.369 110.224 309.618C110.004 309.853 109.894 310.227 109.894 310.74C109.894 311.268 110.004 311.657 110.224 311.906C110.444 312.155 110.73 312.28 111.082 312.28ZM111.346 320.2C111.962 320.2 112.476 320.105 112.886 319.914C113.297 319.738 113.502 319.496 113.502 319.188C113.502 318.895 113.37 318.711 113.106 318.638C112.857 318.565 112.498 318.528 112.028 318.528H111.17C110.73 318.528 110.393 318.513 110.158 318.484C109.938 318.469 109.748 318.44 109.586 318.396C109.322 318.66 109.19 318.924 109.19 319.188C109.19 319.54 109.388 319.797 109.784 319.958C110.195 320.119 110.716 320.2 111.346 320.2ZM118.736 318V307H122.52V318H118.736ZM120.628 305.636C120.012 305.636 119.513 305.467 119.132 305.13C118.751 304.778 118.56 304.316 118.56 303.744C118.56 303.172 118.751 302.717 119.132 302.38C119.513 302.028 120.012 301.852 120.628 301.852C121.244 301.852 121.743 302.028 122.124 302.38C122.505 302.717 122.696 303.172 122.696 303.744C122.696 304.316 122.505 304.778 122.124 305.13C121.743 305.467 121.244 305.636 120.628 305.636ZM128.462 318.264C127.611 318.264 126.937 318.095 126.438 317.758C125.954 317.406 125.602 316.922 125.382 316.306C125.177 315.675 125.074 314.949 125.074 314.128V302.688H128.858V314.26C128.858 314.627 128.924 314.883 129.056 315.03C129.203 315.162 129.342 315.228 129.474 315.228C129.547 315.228 129.606 315.228 129.65 315.228C129.709 315.213 129.782 315.199 129.87 315.184L130.31 317.956C130.119 318.044 129.87 318.117 129.562 318.176C129.254 318.235 128.887 318.264 128.462 318.264ZM133.871 318.264C133.24 318.264 132.712 318.044 132.287 317.604C131.876 317.149 131.671 316.607 131.671 315.976C131.671 315.331 131.876 314.788 132.287 314.348C132.712 313.908 133.24 313.688 133.871 313.688C134.516 313.688 135.044 313.908 135.455 314.348C135.865 314.788 136.071 315.331 136.071 315.976C136.071 316.607 135.865 317.149 135.455 317.604C135.044 318.044 134.516 318.264 133.871 318.264Z" fill="white"/>
<rect opacity="0.6" x="308.633" y="0.707107" width="150.219" height="150.219" transform="rotate(45 308.633 0.707107)" stroke="white"/>
<rect opacity="0.9" x="308.632" y="28.4082" width="151.219" height="151.219" transform="rotate(45 308.632 28.4082)" fill="#06255B" fill-opacity="0.8" stroke="white" stroke-width="8"/>
<path d="M254.363 143.252C253.089 143.252 251.927 143 250.877 142.496C249.841 141.978 249.015 141.201 248.399 140.165C247.783 139.129 247.475 137.834 247.475 136.28C247.475 135.132 247.657 134.117 248.021 133.235C248.385 132.339 248.882 131.583 249.512 130.967C250.142 130.351 250.863 129.889 251.675 129.581C252.501 129.259 253.369 129.098 254.279 129.098C255.287 129.098 256.162 129.28 256.904 129.644C257.646 129.994 258.255 130.414 258.731 130.904L256.841 133.214C256.505 132.92 256.148 132.682 255.77 132.5C255.406 132.304 254.951 132.206 254.405 132.206C253.481 132.206 252.711 132.556 252.095 133.256C251.479 133.942 251.171 134.908 251.171 136.154C251.171 137.428 251.458 138.415 252.032 139.115C252.62 139.801 253.523 140.144 254.741 140.144C254.937 140.144 255.126 140.123 255.308 140.081C255.504 140.039 255.665 139.976 255.791 139.892V138.002H253.775V135.062H258.983V141.572C258.507 142.034 257.856 142.433 257.03 142.769C256.218 143.091 255.329 143.252 254.363 143.252ZM264.075 143.252C263.417 143.252 262.85 143.105 262.374 142.811C261.912 142.503 261.555 142.104 261.303 141.614C261.051 141.124 260.925 140.592 260.925 140.018C260.925 138.926 261.373 138.072 262.269 137.456C263.165 136.826 264.621 136.406 266.637 136.196C266.553 135.468 266.063 135.104 265.167 135.104C264.789 135.104 264.39 135.181 263.97 135.335C263.55 135.475 263.067 135.692 262.521 135.986L261.261 133.634C262.003 133.186 262.752 132.843 263.508 132.605C264.278 132.367 265.069 132.248 265.881 132.248C267.253 132.248 268.324 132.64 269.094 133.424C269.864 134.194 270.249 135.44 270.249 137.162V143H267.309L267.057 141.992H266.973C266.553 142.37 266.105 142.678 265.629 142.916C265.167 143.14 264.649 143.252 264.075 143.252ZM265.335 140.48C265.629 140.48 265.874 140.417 266.07 140.291C266.266 140.151 266.455 139.976 266.637 139.766V138.338C265.783 138.464 265.188 138.653 264.852 138.905C264.53 139.157 264.369 139.43 264.369 139.724C264.369 140.228 264.691 140.48 265.335 140.48ZM272.604 143V132.5H275.544L275.796 133.76H275.88C276.3 133.354 276.776 133.004 277.308 132.71C277.854 132.402 278.484 132.248 279.198 132.248C280.36 132.248 281.193 132.64 281.697 133.424C282.215 134.194 282.474 135.23 282.474 136.532V143H278.862V136.994C278.862 136.322 278.778 135.874 278.61 135.65C278.442 135.426 278.176 135.314 277.812 135.314C277.476 135.314 277.196 135.384 276.972 135.524C276.748 135.664 276.496 135.86 276.216 136.112V143H272.604ZM284.449 143V141.068L288.439 135.314H284.911V132.5H292.933V134.432L288.943 140.186H293.059V143H284.449ZM294.773 143V128.384H298.385V131.786L298.217 133.592C298.581 133.27 299.015 132.969 299.519 132.689C300.037 132.395 300.653 132.248 301.367 132.248C302.529 132.248 303.362 132.64 303.866 133.424C304.384 134.194 304.643 135.23 304.643 136.532V143H301.031V136.994C301.031 136.322 300.947 135.874 300.779 135.65C300.611 135.426 300.345 135.314 299.981 135.314C299.645 135.314 299.365 135.384 299.141 135.524C298.917 135.664 298.665 135.86 298.385 136.112V143H294.773ZM311.868 143.252C310.846 143.252 309.922 143.035 309.096 142.601C308.284 142.167 307.64 141.544 307.164 140.732C306.688 139.906 306.45 138.912 306.45 137.75C306.45 136.616 306.688 135.643 307.164 134.831C307.654 134.005 308.284 133.368 309.054 132.92C309.824 132.472 310.636 132.248 311.49 132.248C312.526 132.248 313.38 132.479 314.052 132.941C314.738 133.389 315.242 133.998 315.564 134.768C315.9 135.538 316.068 136.392 316.068 137.33C316.068 137.638 316.047 137.939 316.005 138.233C315.977 138.513 315.949 138.716 315.921 138.842H309.936C310.104 139.472 310.405 139.913 310.839 140.165C311.273 140.403 311.784 140.522 312.372 140.522C313.044 140.522 313.758 140.312 314.514 139.892L315.69 142.034C315.13 142.426 314.5 142.727 313.8 142.937C313.1 143.147 312.456 143.252 311.868 143.252ZM309.894 136.49H313.002C313.002 136.084 312.897 135.734 312.687 135.44C312.491 135.132 312.12 134.978 311.574 134.978C311.182 134.978 310.832 135.097 310.524 135.335C310.216 135.573 310.006 135.958 309.894 136.49ZM318.05 143V132.5H321.662V143H318.05ZM319.856 131.198C319.268 131.198 318.792 131.037 318.428 130.715C318.064 130.379 317.882 129.938 317.882 129.392C317.882 128.846 318.064 128.412 318.428 128.09C318.792 127.754 319.268 127.586 319.856 127.586C320.444 127.586 320.92 127.754 321.284 128.09C321.648 128.412 321.83 128.846 321.83 129.392C321.83 129.938 321.648 130.379 321.284 130.715C320.92 131.037 320.444 131.198 319.856 131.198ZM328.425 143.252C327.067 143.252 326.08 142.86 325.464 142.076C324.862 141.278 324.561 140.242 324.561 138.968V135.314H323.175V132.626L324.771 132.5L325.191 129.77H328.173V132.5H330.567V135.314H328.173V138.905C328.173 139.479 328.299 139.878 328.551 140.102C328.803 140.326 329.097 140.438 329.433 140.438C329.601 140.438 329.762 140.424 329.916 140.396C330.084 140.354 330.231 140.312 330.357 140.27L330.903 142.874C330.637 142.958 330.301 143.042 329.895 143.126C329.489 143.21 328.999 143.252 328.425 143.252ZM335.742 143.252C334.93 143.252 334.286 143.091 333.81 142.769C333.348 142.433 333.012 141.971 332.802 141.383C332.606 140.781 332.508 140.088 332.508 139.304V128.384H336.12V139.43C336.12 139.78 336.183 140.025 336.309 140.165C336.449 140.291 336.582 140.354 336.708 140.354C336.778 140.354 336.834 140.354 336.876 140.354C336.932 140.34 337.002 140.326 337.086 140.312L337.506 142.958C337.324 143.042 337.086 143.112 336.792 143.168C336.498 143.224 336.148 143.252 335.742 143.252ZM338.762 143V132.5H342.374V143H338.762ZM340.568 131.198C339.98 131.198 339.504 131.037 339.14 130.715C338.776 130.379 338.594 129.938 338.594 129.392C338.594 128.846 338.776 128.412 339.14 128.09C339.504 127.754 339.98 127.586 340.568 127.586C341.156 127.586 341.632 127.754 341.996 128.09C342.36 128.412 342.542 128.846 342.542 129.392C342.542 129.938 342.36 130.379 341.996 130.715C341.632 131.037 341.156 131.198 340.568 131.198ZM349.558 143.252C348.564 143.252 347.668 143.035 346.87 142.601C346.072 142.167 345.435 141.544 344.959 140.732C344.497 139.906 344.266 138.912 344.266 137.75C344.266 136.588 344.525 135.601 345.043 134.789C345.575 133.963 346.268 133.333 347.122 132.899C347.976 132.465 348.9 132.248 349.894 132.248C350.524 132.248 351.091 132.346 351.595 132.542C352.113 132.738 352.568 133.004 352.96 133.34L351.28 135.65C351.056 135.454 350.853 135.321 350.671 135.251C350.489 135.181 350.3 135.146 350.104 135.146C349.432 135.146 348.907 135.384 348.529 135.86C348.151 136.322 347.962 136.952 347.962 137.75C347.962 138.548 348.158 139.185 348.55 139.661C348.942 140.123 349.418 140.354 349.978 140.354C350.272 140.354 350.559 140.291 350.839 140.165C351.133 140.025 351.406 139.864 351.658 139.682L353.044 142.034C352.526 142.496 351.952 142.818 351.322 143C350.692 143.168 350.104 143.252 349.558 143.252ZM354.718 143V128.384H358.33V131.786L358.162 133.592C358.526 133.27 358.96 132.969 359.464 132.689C359.982 132.395 360.598 132.248 361.312 132.248C362.474 132.248 363.307 132.64 363.811 133.424C364.329 134.194 364.588 135.23 364.588 136.532V143H360.976V136.994C360.976 136.322 360.892 135.874 360.724 135.65C360.556 135.426 360.29 135.314 359.926 135.314C359.59 135.314 359.31 135.384 359.086 135.524C358.862 135.664 358.61 135.86 358.33 136.112V143H354.718ZM369.082 143.252C368.48 143.252 367.976 143.042 367.57 142.622C367.178 142.188 366.982 141.67 366.982 141.068C366.982 140.452 367.178 139.934 367.57 139.514C367.976 139.094 368.48 138.884 369.082 138.884C369.698 138.884 370.202 139.094 370.594 139.514C370.986 139.934 371.182 140.452 371.182 141.068C371.182 141.67 370.986 142.188 370.594 142.622C370.202 143.042 369.698 143.252 369.082 143.252Z" fill="white"/>
</svg>
