<svg width="72" height="56" viewBox="0 0 72 56" fill="none" xmlns="http://www.w3.org/2000/svg">
<path d="M39.8628 38.1397V55.2998H33.8654V39.5655C33.8654 37.8169 33.5929 36.4158 33.0047 35.4311C32.3836 34.3913 31.3931 33.8791 30.1239 33.8791C28.9639 33.8791 27.8902 34.1543 26.9138 34.7075C25.991 35.2299 24.8243 36.0102 23.4184 37.0258L23.2112 37.1755V37.4311V38.1397V55.2998H17.2183V39.5655C17.2183 37.8154 16.9408 36.4151 16.3531 35.4312L15.9239 35.6875L16.3531 35.4311C15.732 34.3913 14.7415 33.8791 13.4724 33.8791C12.3116 33.8791 11.2379 34.1543 10.2614 34.7075L10.2609 34.7079C9.34126 35.2304 8.15374 36.0242 6.71023 37.0829L6.50593 37.2327V37.4861V55.2998H0.500008V29.8642H4.24804L5.30462 32.3913L5.54701 32.971L6.05749 32.6046C7.64183 31.4673 9.27455 30.5785 10.955 29.941C12.645 29.2998 14.091 28.9921 15.3042 28.9921C18.7425 28.9921 20.9387 30.1407 22.0827 32.3221L22.3458 32.8237L22.8109 32.5004C24.4007 31.3953 26.0128 30.5341 27.659 29.914C29.3121 29.2919 30.741 28.9921 31.9558 28.9921C34.8544 28.9921 36.8264 29.7772 38.0073 31.233C39.2163 32.7241 39.8628 34.9985 39.8628 38.1397ZM71.2969 17.4578L55.5307 33.4046L39.7645 17.4578L55.5307 1.51097L71.2969 17.4578Z" fill="white" stroke="black"/>
</svg>
